Coordinates
version=1
nRows=14
nColumns=42
inDegrees=yes

Units are S.I. units (second, meters, Newtons, ...)
If the header above contains a line with 'inDegrees', this indicates whether rotational values are in degrees (yes) or radians (no).

endheader
time	pelvis_tilt	pelvis_list	pelvis_rotation	pelvis_tx	pelvis_ty	pelvis_tz	hip_flexion_r	hip_adduction_r	hip_rotation_r	knee_angle_r	knee_adduction_r	knee_angle_r_beta	ankle_angle_r	subtalar_angle_r	mtp_angle_r	hip_flexion_l	hip_adduction_l	hip_rotation_l	knee_angle_l	knee_adduction_l	knee_angle_l_beta	ankle_angle_l	subtalar_angle_l	mtp_angle_l	lumbar_extension	lumbar_bending	lumbar_rotation	arm_flex_r	arm_add_r	arm_rot_r	elbow_flex_r	pro_sup_r	wrist_flex_r	wrist_dev_r	arm_flex_l	arm_add_l	arm_rot_l	elbow_flex_l	pro_sup_l	wrist_flex_l	wrist_dev_l
      2.15000000	     20.58158888	     -1.16309931	      4.18878981	      0.42458079	      0.94382510	     -0.34741620	    -10.45403673	      3.53249329	    -24.15358969	     20.52398990	     -4.24834736	      0.35821120	     11.84640575	     35.57045797	     -7.52082474	    -23.95065791	     -0.24070847	     -5.54710427	     44.83219030	      6.81791800	      0.78246933	     11.28452062	     -9.53781449	     -7.52082474	    -35.70607036	     -0.96627460	      1.20536451	      6.21235126	     -8.70901821	    -36.34268352	     24.13961333	     90.00000001	      0.00000000	      0.00000000	      1.38611522	    -20.48618411	      7.56331899	     71.14146082	     90.00000001	      0.00000000	      0.00000000
      2.16000000	     20.51313029	     -1.10045052	      4.45699936	      0.42937858	      0.94417782	     -0.34890062	    -10.91428037	      3.37759235	    -23.83698422	     20.29053461	     -3.74780482	      0.35413664	     12.10240386	     35.33077843	     -7.52044871	    -22.56115612	     -0.71394968	     -5.74187369	     47.09013579	      6.61897292	      0.82187791	     11.19955113	    -10.52121871	     -7.52044871	    -35.66603744	     -0.91273339	      1.07443315	      6.73604469	     -8.77603702	    -35.86608047	     24.63939361	     90.00000001	      0.00000000	      0.00000000	      1.51729026	    -20.50207663	      7.59017695	     71.39511384	     90.00000001	      0.00000000	      0.00000000
      2.17000000	     20.33382937	     -1.21799754	      4.66808282	      0.43406772	      0.94421630	     -0.35003041	    -11.13399420	      3.53574797	    -23.44380664	     20.11400784	     -3.57515619	      0.35105566	     12.35273344	     34.90414401	     -7.52004952	    -20.93037741	     -1.40033814	     -6.24196713	     49.33501325	      6.27632483	      0.86105842	     11.21163143	    -12.03834993	     -7.52004952	    -35.50896765	     -0.74955604	      1.07822931	      7.25662518	     -8.85857620	    -35.21280204	     25.18558035	     90.00000001	      0.00000000	      0.00000000	      1.60449546	    -20.48763233	      7.61970365	     71.66641916	     90.00000001	      0.00000000	      0.00000000
      2.18000000	     20.11454766	     -1.36131329	      4.78983153	      0.43870878	      0.94418137	     -0.35089600	    -11.24129540	      3.76225783	    -22.92014083	     20.04238420	     -3.54506066	      0.34980559	     12.56898144	     34.20310627	     -7.51956200	    -19.25665578	     -2.12883146	     -6.73622202	     51.27174178	      6.00570215	      0.89486071	     11.17576055	    -13.59635192	     -7.51956200	    -35.31348781	     -0.63374624	      1.17837468	      7.72450158	     -8.93481574	    -34.20953807	     25.83178546	     90.00000001	      0.00000000	      0.00000000	      1.72936344	    -20.47522079	      7.62747403	     71.82370496	     90.00000001	      0.00000000	      0.00000000
      2.19000000	     20.07494859	     -1.44696082	      4.89573598	      0.44328637	      0.94451140	     -0.35197353	    -11.67370197	      3.89549591	    -21.79870483	     19.81355565	     -3.12879586	      0.34581178	     12.66350288	     32.47782148	     -7.51723852	    -17.85106478	     -2.75392842	     -6.97038627	     52.67497796	      5.83554798	      0.91935180	     11.19588856	    -15.18086925	     -7.51723852	    -35.33926162	     -0.54713586	      1.31843372	      7.49670613	     -9.42145660	    -29.32964122	     27.29769701	     90.00000001	      0.00000000	      0.00000000	      1.94015042	    -20.41816512	      7.63080106	     71.97046331	     90.00000001	      0.00000000	      0.00000000
      2.20000000	     20.08052139	     -1.34085930	      5.03981613	      0.44797424	      0.94492636	     -0.35334398	    -12.14139766	      3.74377721	    -21.48217881	     19.64473601	     -2.88493654	      0.34286532	     12.91648103	     32.28587792	     -7.51699219	    -16.52213208	     -3.05694407	     -7.33811594	     53.61333224	      5.20571637	      0.93572917	     11.82066172	    -15.88630434	     -7.51699219	    -35.41303065	     -0.60840735	      1.29835854	      8.12931398	     -9.47037552	    -29.08033302	     27.83847055	     90.00000001	      0.00000000	      0.00000000	      2.09188665	    -20.40804916	      7.70513912	     72.14734251	     90.00000001	      0.00000000	      0.00000000
      2.21000000	     19.89133945	     -1.49666495	      5.08981540	      0.45242038	      0.94492236	     -0.35424964	    -12.29026215	      3.96941534	    -20.70624782	     19.54269729	     -2.78195851	      0.34108441	     13.13685538	     31.24438189	     -7.51636135	    -14.82273060	     -3.71557860	     -7.97787702	     54.61410816	      4.57673980	      0.95319601	     12.15608884	    -16.51258171	     -7.51636135	    -35.28839050	     -0.50544283	      1.51685684	      8.60061063	     -9.62356825	    -28.09005675	     28.69458272	     90.00000001	      0.00000000	      0.00000000	      2.28770448	    -20.36091178	      7.80259572	     72.27198848	     90.00000001	      0.00000000	      0.00000000
      2.22000000	     19.92678058	     -1.34255790	      5.17045805	      0.45697137	      0.94545333	     -0.35559368	    -12.79332543	      3.76993958	    -20.36735015	     19.34835108	     -2.57284348	      0.33769243	     13.32488902	     30.88892045	     -7.51614369	    -13.54242896	     -3.90584865	     -8.13604209	     54.83659519	      4.05642912	      0.95707914	     12.87413619	    -16.86905835	     -7.51614369	    -35.42537969	     -0.64944619	      1.52440342	      9.27292789	     -9.67620177	    -27.69772838	     29.23840310	     90.00000001	      0.00000000	      0.00000000	      2.47337041	    -20.33995124	      7.88174346	     72.36598924	     90.00000001	      0.00000000	      0.00000000
      2.23000000	     19.92856096	     -1.43757262	      5.19211411	      0.46138086	      0.94594177	     -0.35667737	    -13.38829534	      3.90937294	    -18.68362633	     18.82561361	     -1.96231443	      0.32856894	     13.26138675	     28.50334202	     -7.51453578	    -12.16522010	     -4.39818667	     -8.43541941	     54.89060331	      3.55548146	      0.95802176	     13.31185589	    -17.07422127	     -7.51453578	    -35.53471198	     -0.59396404	      1.72352601	      9.39351336	    -10.13636426	    -24.31053707	     30.58862629	     90.00000001	      0.00000000	      0.00000000	      2.65909276	    -20.29454738	      8.00744636	     72.48975971	     90.00000001	      0.00000000	      0.00000000
      2.24000000	     19.89374307	     -1.32218820	      5.21966491	      0.46576961	      0.94633909	     -0.35801271	    -13.75178294	      3.76322823	    -18.45980499	     18.69138980	     -1.91203796	      0.32622629	     13.44176095	     28.24888711	     -7.51432644	    -10.78742208	     -4.54380555	     -8.43437769	     54.57160066	      3.09316636	      0.95245411	     13.87050064	    -17.16547033	     -7.51432644	    -35.61624255	     -0.72692736	      1.79865943	     10.12426167	    -10.19620598	    -24.07919670	     31.13577570	     90.00000001	      0.00000000	      0.00000000	      2.85250638	    -20.23856536	      8.08902715	     72.53370071	     90.00000001	      0.00000000	      0.00000000
      2.25000000	     19.80552154	     -1.22793572	      5.22676405	      0.47013387	      0.94666506	     -0.35934246	    -14.06571003	      3.63240656	    -18.16202533	     18.52893203	     -1.84830396	      0.32339087	     13.63732143	     27.93209845	     -7.51411514	     -9.36329200	     -4.66922310	     -8.34560167	     53.97289477	      2.67599544	      0.94200472	     14.29742177	    -17.12018696	     -7.51411514	    -35.63875047	     -0.85179920	      1.89390776	     10.83443002	    -10.25108708	    -23.74832862	     31.75869045	     90.00000001	      0.00000000	      0.00000000	      3.03591522	    -20.18735396	      8.19220559	     72.57722761	     90.00000001	      0.00000000	      0.00000000
      2.26000000	     19.89291535	     -1.05922941	      5.18046972	      0.47448155	      0.94740944	     -0.36075925	    -14.80708563	      3.40208435	    -16.82979222	     17.94070261	     -1.28640997	      0.31312433	     13.60755970	     26.32293397	     -7.51275828	     -8.24135089	     -4.64678553	     -8.04431951	     52.93324351	      2.40839359	      0.92385938	     14.37550121	    -17.19362196	     -7.51275828	    -35.89454028	     -1.05423907	      2.00313091	     11.05010126	    -10.68728620	    -20.75316106	     33.11429863	     90.00000001	      0.00000000	      0.00000000	      3.23826758	    -20.15686778	      8.39535640	     72.60460238	     90.00000001	      0.00000000	      0.00000000
      2.27000000	     19.72116442	     -1.06851911	      5.16399113	      0.47882801	      0.94750161	     -0.36209120	    -14.95932368	      3.37925308	    -16.71216189	     17.87787250	     -1.33370651	      0.31202774	     13.75601250	     26.02786832	     -7.51257465	     -6.75634935	     -4.81671761	     -7.82210572	     51.89601307	      2.04380772	      0.90575630	     14.67097872	    -16.86913982	     -7.51257465	    -35.81258340	     -1.09999506	      2.15787755	     11.80927254	    -10.72907570	    -20.55699220	     33.64626784	     90.00000001	      0.00000000	      0.00000000	      3.35809638	    -20.06769903	      8.47712407	     72.64273657	     90.00000001	      0.00000000	      0.00000000
      2.28000000	     19.84695255	     -0.72036107	      5.11008439	      0.48330149	      0.94828922	     -0.36380235	    -15.71672851	      2.91393875	    -16.23422483	     17.35545351	     -1.06283716	      0.30290981	     14.01119091	     25.87137759	     -7.51223411	     -5.85934460	     -4.46409976	     -7.09449162	     50.19996411	      1.96783198	      0.87615466	     14.77342341	    -16.95401413	     -7.51223411	    -36.09571535	     -1.45455212	      2.17242964	     12.41897679	    -10.83354262	    -19.77085732	     34.51274410	     90.00000001	      0.00000000	      0.00000000	      3.55838771	    -20.04112515	      8.68722547	     72.56291056	     90.00000001	      0.00000000	      0.00000000
